<svg xmlns="http://www.w3.org/2000/svg" xmlns:xlink="http://www.w3.org/1999/xlink" version="1.1" x="0px" y="0px" width="100px" height="100px" viewBox="0 0 100 100" enable-background="new 0 0 100 100" xml:space="preserve">
<g id="Captions">
</g>
<g id="Your_Icon">
	<path d="M62.214,31.736l-6.262-6.26c-2.765-2.765-6.939-2.714-9.705,0.052L20.172,51.602c-7.824,7.824-7.888,20.491-0.063,28.316   c7.824,7.824,20.491,7.761,28.315-0.064L74.5,53.78c2.764-2.767,2.584-7.173-0.18-9.937l-6.262-6.26   c0.594-1.022,1.082-3.958-0.401-5.443C66.172,30.657,63.233,31.143,62.214,31.736z M43.677,68.728   c-1.175,1.175-3.081,1.176-4.256,0c-1.174-1.177-1.174-3.079,0.002-4.256c1.174-1.174,3.08-1.175,4.255-0.001   C44.853,65.648,44.852,67.551,43.677,68.728z M35.324,60.374c-1.176,1.174-3.081,1.174-4.256,0c-1.177-1.176-1.176-3.08,0-4.257   c1.176-1.176,3.08-1.177,4.257,0C36.5,57.293,36.499,59.199,35.324,60.374z M51.198,61.207c-1.176,1.176-3.081,1.176-4.257,0   c-1.175-1.175-1.174-3.08,0-4.254c1.175-1.176,3.081-1.177,4.257-0.003C52.375,58.126,52.372,60.03,51.198,61.207z M42.843,52.854   c-1.175,1.174-3.082,1.175-4.255,0.001c-1.177-1.179-1.175-3.082,0-4.257c1.175-1.175,3.08-1.177,4.257-0.001   C44.021,49.772,44.02,51.677,42.843,52.854z M58.858,53.545c-1.175,1.177-3.079,1.177-4.256,0c-1.176-1.176-1.176-3.079,0-4.253   c1.177-1.177,3.082-1.177,4.257-0.001C60.035,50.465,60.035,52.368,58.858,53.545z M50.504,45.191   c-1.175,1.176-3.079,1.176-4.254,0c-1.176-1.176-1.175-3.08,0-4.254c1.176-1.176,3.08-1.177,4.256,0   C51.682,42.111,51.682,44.016,50.504,45.191z"/>
	<path d="M77.819,38.586c-0.287,0.288-0.662,0.492-1.09,0.566c-1.11,0.191-2.164-0.552-2.357-1.659   c-0.524-3.021-1.95-5.766-4.126-7.941c-2.179-2.178-4.923-3.605-7.942-4.128c-1.108-0.194-1.853-1.248-1.659-2.357   c0.191-1.106,1.248-1.851,2.356-1.658c3.851,0.668,7.354,2.487,10.125,5.261c2.772,2.773,4.592,6.274,5.261,10.125   C78.506,37.475,78.271,38.134,77.819,38.586z"/>
	<path d="M84.858,38.583c-0.31,0.309-0.721,0.524-1.19,0.579c-1.116,0.139-2.133-0.659-2.27-1.773   c-0.595-4.872-2.749-9.285-6.229-12.764c-3.481-3.48-7.896-5.634-12.767-6.228c-1.118-0.137-1.912-1.153-1.775-2.268   c0.136-1.118,1.153-1.914,2.271-1.777c5.782,0.706,11.024,3.263,15.149,7.391c4.131,4.128,6.686,9.367,7.396,15.151   C85.521,37.541,85.287,38.154,84.858,38.583z"/>
</g>
</svg>